<?xml version="1.0" encoding="UTF-8"?>
<svg id="Layer_2" data-name="Layer 2" xmlns="http://www.w3.org/2000/svg" viewBox="0 0 683.01 245.28">
  <defs>
    <style>
      .cls-1 {
        fill: #231f20;
      }
    </style>
  </defs>
  <g id="Layer_2-2" data-name="Layer 2">
    <path class="cls-1" d="M170.33,209.23h-20.95l-23.25-101.52h-1.15v101.52h-23.48V34.27h22.79l21.64,89.55h.92V34.27h23.48v174.96h0Z"/>
    <path class="cls-1" d="M260.79,173.09c0,27.4-13.81,36.14-37.52,36.14h-37.3V34.27h36.6c25.09,0,38.22,9.44,38.22,39.14v99.68h0ZM232.02,70.18c0-10.36-3.22-13.35-10.36-13.35h-6.91v129.84h6.45c8.06,0,10.82-3.68,10.82-12.2v-104.29h0Z"/>
    <path class="cls-1" d="M336.53,171.25c0,27.86-12.89,40.75-34.76,40.75-23.02,0-32.23-13.81-32.23-39.14,0-10.59,1.15-18.88,2.07-23.71l20.95,1.84c-.92,5.3-1.61,13.12-1.61,19.34,0,14.73,2.3,19.8,8.98,19.8,5.99,0,8.06-4.83,8.06-15.66v-4.83c0-13.35-2.99-25.55-18.19-43.97-14.73-17.73-20.26-32-20.26-52.03v-2.76c0-22.79,8.29-39.6,33.84-39.6s31.77,15.19,31.77,39.14c0,9.44-.69,17.96-1.61,23.48l-21.41-1.84c.92-5.06,1.38-11.51,1.38-19.11,0-15.19-2.07-20.03-8.06-20.03s-7.6,4.61-7.6,14.73v3.68c0,10.36,3.22,21.18,14.27,35.22,15.19,19.34,24.4,38.91,24.4,61.24v3.45h0Z"/>
    <path class="cls-1" d="M381.41,211.99c-22.33,0-36.14-11.28-36.14-36.6v-106.59c0-25.09,13.81-37.52,35.68-37.52,19.8,0,34.3,7.6,34.3,38.68,0,10.59-.69,18.88-1.61,23.94l-21.87-1.84c.69-3.68,1.61-11.74,1.61-18.65,0-16.58-3.22-20.49-9.67-20.49s-9.67,2.99-9.67,12.2v112.81c0,8.29,2.3,12.66,9.9,12.66,5.99,0,9.44-4.6,9.44-21.18,0-5.99-.69-12.89-1.61-17.73l21.64-2.07c.92,4.6,2.07,13.12,2.07,22.79,0,31.77-14.5,39.6-34.07,39.6h0Z"/>
    <path class="cls-1" d="M474.64,34.27h-32.23l-26.02,211.01h4.04c11.25,0,20.63-8.62,21.58-19.83l14.21-151.82h.92l11.74,135.6h29.24l-23.48-174.96h0Z"/>
    <path class="cls-1" d="M543.7,145.92h-7.83v63.31h-28.78V34.27h35.45c25.55,0,38.22,13.35,38.22,55.02,0,43.97-16.12,56.63-37.07,56.63h.01ZM540.02,56.83h-4.14v66.53h4.37c8.06,0,12.43-8.06,12.43-34.3,0-24.4-3.91-32.23-12.66-32.23h0Z"/>
    <path class="cls-1" d="M683,0H0v239.14h408.76l1.74-14.1H14.1V14.1h654.81v210.94h-218.5l-.11,1.19c-.4,4.73-1.87,9.1-4.15,12.91h236.86V0h-.01Z"/>
    <path class="cls-1" d="M91.43,209.73H31.19V34.99h60.01v22.53h-31.27v49.43h25.98v22.99h-25.98v57.25h31.5v22.53h0Z"/>
    <path class="cls-1" d="M651.31,209.73h-60.24V34.99h60.01v22.53h-31.27v49.43h25.98v22.99h-25.98v57.25h31.5v22.53h0Z"/>
  </g>
</svg>