<?xml version="1.0" encoding="UTF-8" ?>
<!DOCTYPE svg PUBLIC "-//W3C//DTD SVG 1.1//EN" "http://www.w3.org/Graphics/SVG/1.1/DTD/svg11.dtd">
<svg width="638pt" height="638pt" viewBox="0 0 638 638" version="1.1" xmlns="http://www.w3.org/2000/svg">
<g id="#ffffffff">
</g>
<g id="#000000ff">
<path fill="#000000" opacity="1.00" d=" M 198.75 174.62 C 279.12 174.63 359.50 174.63 439.87 174.62 C 439.87 270.83 439.87 367.04 439.87 463.25 C 359.50 463.25 279.12 463.25 198.75 463.25 C 198.75 367.04 198.74 270.83 198.75 174.62 M 208.12 184.00 C 208.13 273.96 208.12 363.92 208.12 453.87 C 282.21 453.88 356.29 453.88 430.37 453.88 C 430.38 363.92 430.37 273.96 430.38 184.00 C 356.29 184.00 282.21 184.00 208.12 184.00 Z" />
<path fill="#000000" opacity="1.00" d=" M 229.83 216.88 C 242.47 200.89 262.54 191.07 282.94 191.12 C 329.88 191.14 376.82 191.11 423.76 191.14 C 423.74 250.75 423.76 310.36 423.75 369.98 C 423.72 375.99 423.99 382.04 423.08 388.02 C 420.76 404.93 411.75 420.78 398.50 431.52 C 386.37 441.51 370.71 447.02 355.01 446.99 C 308.26 447.02 261.50 446.97 214.74 447.01 C 214.77 384.66 214.71 322.32 214.77 259.98 C 214.74 244.45 220.06 228.97 229.83 216.88 M 343.03 211.11 C 342.95 231.95 343.01 252.79 343.01 273.63 C 347.21 273.63 351.41 273.62 355.62 273.62 C 355.62 257.10 355.65 240.57 355.61 224.05 C 355.80 217.15 349.76 211.42 343.03 211.11 M 283.51 224.04 C 283.48 240.44 283.52 256.85 283.49 273.25 C 287.66 273.24 291.83 273.24 296.00 273.25 C 295.99 252.66 296.03 232.07 295.98 211.48 C 289.44 211.82 283.37 217.28 283.51 224.04 M 313.15 242.92 C 313.10 266.41 313.14 289.89 313.13 313.38 C 301.79 313.41 290.44 313.30 279.10 313.42 C 273.19 313.62 268.60 318.98 268.33 324.72 C 283.26 324.78 298.19 324.74 313.12 324.74 C 313.15 352.04 313.11 379.33 313.14 406.62 C 319.19 406.31 324.67 401.18 324.48 394.96 C 324.52 371.56 324.48 348.15 324.50 324.75 C 334.99 324.76 345.47 324.72 355.96 324.77 C 362.85 325.77 369.59 320.46 369.84 313.41 C 354.73 313.33 339.61 313.39 324.50 313.38 C 324.48 286.10 324.52 258.83 324.48 231.55 C 318.55 231.89 313.06 236.79 313.15 242.92 M 240.47 285.37 C 236.51 287.50 234.26 291.84 233.95 296.24 C 257.46 296.27 280.98 296.23 304.50 296.26 C 304.49 292.08 304.49 287.91 304.50 283.74 C 286.68 283.76 268.86 283.76 251.04 283.74 C 247.48 283.73 243.62 283.37 240.47 285.37 M 333.00 283.74 C 333.00 287.91 333.00 292.08 333.00 296.26 C 356.64 296.23 380.28 296.26 403.93 296.24 C 403.59 291.92 401.44 287.62 397.57 285.46 C 394.44 283.43 390.59 283.72 387.04 283.74 C 369.03 283.76 351.01 283.76 333.00 283.74 M 233.91 343.30 C 234.18 350.04 239.98 356.06 246.85 355.85 C 265.90 355.91 284.95 355.85 304.00 355.88 C 304.00 351.67 304.00 347.46 304.00 343.25 C 280.64 343.29 257.27 343.18 233.91 343.30 M 333.00 343.26 C 333.00 347.46 333.00 351.66 332.99 355.87 C 352.65 355.84 372.32 355.94 391.98 355.82 C 398.70 355.82 404.13 349.82 404.44 343.27 C 380.62 343.22 356.81 343.26 333.00 343.26 M 283.49 366.37 C 283.51 380.91 283.51 395.45 283.49 409.98 C 283.50 413.64 283.09 417.61 285.17 420.85 C 287.32 424.77 291.63 426.94 295.98 427.29 C 296.02 406.98 295.99 386.68 296.00 366.37 C 291.83 366.37 287.66 366.37 283.49 366.37 M 343.02 365.87 C 342.99 386.34 342.97 406.82 343.03 427.30 C 350.37 427.14 356.37 420.34 355.64 413.04 C 355.60 397.31 355.65 381.59 355.62 365.86 C 351.41 365.88 347.21 365.88 343.02 365.87 Z" />
</g>
</svg>
